<?xml version="1.0" encoding="utf-8"?>
<!-- Generator: Adobe Illustrator 25.0.1, SVG Export Plug-In . SVG Version: 6.00 Build 0)  -->
<svg version="1.1" id="master-artboard" xmlns="http://www.w3.org/2000/svg" xmlns:xlink="http://www.w3.org/1999/xlink" x="0px"
	 y="0px" viewBox="0 0 1400 980" style="enable-background:new 0 0 1400 980;" xml:space="preserve">
<style type="text/css">
	.st0{fill:#F2DBA7;}
	.st1{fill:#4F98A4;}
	.st2{fill:#E7C78B;}
	.st3{fill:#003E55;}
	.st4{fill:none;}
	.st5{fill:#F1F2F2;}
	.st6{fill:#083342;}
	.st7{fill:#BCBEC0;}
	.st8{opacity:0.65;fill:#D1D3D4;enable-background:new    ;}
	.st9{fill:#F6E8D7;}
	.st10{fill:#594A42;}
	.st11{fill:#414042;}
	.st12{fill:#A5361B;}
	.st13{opacity:0.64;fill:#F1F2F2;enable-background:new    ;}
	.st14{fill:#FFEBC2;}
</style>
<path id="XMLID_483_" class="st0" d="M55,318.4h1290v75.5H55V318.4z"/>
<path id="XMLID_198_" class="st1" d="M55,394h1290v48.7H55V394z"/>
<path id="XMLID_480_" class="st2" d="M55,342.6V394h1290L55,342.6z"/>
<g id="XMLID_602_" transform="matrix(1, 0, 0, 1, 5.684341886080802e-14, 1.4210854715202004e-14)">
	<path id="XMLID_612_" class="st1" d="M223.9,141.7H154c-4.5,0-8.2,3.7-8.2,8.2v3.4c0,4.5,3.7,8.2,8.2,8.2h5.2
		c-7.4,0-13.4,6-13.4,13.4v111.9c0,7.4,6,13.4,13.4,13.4h59.6c7.4,0,13.4-6,13.4-13.4V175c0-7.4-6-13.4-13.4-13.4h5.2
		c4.5,0,8.2-3.7,8.2-8.2V150C232.1,145.4,228.4,141.7,223.9,141.7z"/>
	<path id="XMLID_611_" class="st1" d="M452.8,141.7h-69.9c-4.5,0-8.2,3.7-8.2,8.2v3.4c0,4.5,3.7,8.2,8.2,8.2h5.2
		c-7.4,0-13.4,6-13.4,13.4v111.9c0,7.4,6,13.4,13.4,13.4h59.6c7.4,0,13.4-6,13.4-13.4V175c0-7.4-6-13.4-13.4-13.4h5.2
		c4.5,0,8.2-3.7,8.2-8.2V150C461,145.4,457.3,141.7,452.8,141.7z"/>
	<path id="XMLID_610_" class="st1" d="M339.8,141.7h-69.9c-4.5,0-8.2,3.7-8.2,8.2v3.4c0,4.5,3.7,8.2,8.2,8.2h5.2
		c-7.4,0-13.4,6-13.4,13.4v111.9c0,7.4,6,13.4,13.4,13.4h59.6c7.4,0,13.4-6,13.4-13.4V175c0-7.4-6-13.4-13.4-13.4h5.2
		c4.5,0,8.2-3.7,8.2-8.2V150C348.1,145.4,344.4,141.7,339.8,141.7z"/>
	<path id="XMLID_609_" class="st1" d="M607.4,198.1H588c1.9-1.1,3.1-3.2,3.1-5.5c0-3.6-2.9-6.5-6.5-6.5s-6.5,2.9-6.5,6.5
		c0,2.3,1.2,4.4,3.1,5.5h-19.4c-5.6,0-10.1,4.5-10.1,10.1v6.9v10.4v64.7c0,5.6,4.5,10.1,10.1,10.1h45.6c5.6,0,10.1-4.5,10.1-10.1
		v-64.7v-10.4v-6.9C617.5,202.7,612.9,198.1,607.4,198.1z"/>
	<path id="XMLID_608_" class="st1" d="M697.6,198.1h-19.4c1.9-1.1,3.1-3.2,3.1-5.5c0-3.6-2.9-6.5-6.5-6.5s-6.5,2.9-6.5,6.5
		c0,2.3,1.2,4.4,3.1,5.5H652c-5.6,0-10.1,4.5-10.1,10.1v6.9v10.4v64.7c0,5.6,4.5,10.1,10.1,10.1h45.6c5.6,0,10.1-4.5,10.1-10.1
		v-64.7v-10.4v-6.9C707.6,202.7,703.1,198.1,697.6,198.1z"/>
	<path id="XMLID_607_" class="st1" d="M787.7,198.1h-19.4c1.9-1.1,3.1-3.2,3.1-5.5c0-3.6-2.9-6.5-6.5-6.5s-6.5,2.9-6.5,6.5
		c0,2.3,1.2,4.4,3.1,5.5h-19.4c-5.6,0-10.1,4.5-10.1,10.1v6.9v10.4v64.7c0,5.6,4.5,10.1,10.1,10.1h45.6c5.6,0,10.1-4.5,10.1-10.1
		v-64.7v-10.4v-6.9C797.8,202.7,793.3,198.1,787.7,198.1z"/>
	<path id="XMLID_606_" class="st1" d="M877.9,198.1h-19.4c1.9-1.1,3.1-3.2,3.1-5.5c0-3.6-2.9-6.5-6.5-6.5s-6.5,2.9-6.5,6.5
		c0,2.3,1.2,4.4,3.1,5.5h-19.4c-5.6,0-10.1,4.5-10.1,10.1v6.9v10.4v64.7c0,5.6,4.5,10.1,10.1,10.1h45.6c5.6,0,10.1-4.5,10.1-10.1
		v-64.7v-10.4v-6.9C888,202.7,883.5,198.1,877.9,198.1z"/>
	<path id="XMLID_605_" class="st1" d="M1041.1,151.7h-0.2c0-7.1-5.8-12.8-12.8-12.8h-30.4v-23.5h-8.5v23.5H989
		c-7.1,0-12.8,5.8-12.8,12.8v7.3h0.5l-11.9,141.3h87.6L1041.1,159V151.7z"/>
	<path id="XMLID_604_" class="st1" d="M1158.9,159v-7.3h-0.2c0-7.1-5.8-12.8-12.8-12.8h-30.4v-23.5h-8.5v23.5h-0.1
		c-7.1,0-12.8,5.8-12.8,12.8v7.3h0.5l-11.9,141.3h87.6L1158.9,159L1158.9,159z"/>
	<path id="XMLID_603_" class="st1" d="M1287.8,300.3L1276.6,159v-7.3h-0.2c0-7.1-5.8-12.8-12.8-12.8h-30.4v-23.5h-8.5v23.5h-0.1
		c-7.1,0-12.8,5.8-12.8,12.8v7.3h0.5l-11.9,141.3H1287.8z"/>
</g>
<g id="XMLID_1097_" transform="matrix(1, 0, 0, 1, 5.684341886080802e-14, 1.4210854715202004e-14)">
	<path id="XMLID_1164_" class="st3" d="M1156.8,838c0-0.1,0-0.3,0-0.4c0-0.3-0.1-0.7-0.1-1l0,0l-6-34l-6-34
		c-5.1-28.9-27.6-49.7-53.8-49.7l0,0h-2.2V517.2c5.3-3.3,8.8-9.1,8.8-15.8V380.1c0-10.3-8.3-18.6-18.6-18.6s-18.6,8.3-18.6,18.6
		v121.3c0,6.7,3.5,12.5,8.8,15.8v201.6h-1.9l0,0c-4.1,0-8.1,0.5-11.9,1.5c-2.3,0.6-4.6,1.3-6.8,2.2c-3.7,1.5-7.1,3.4-10.4,5.7
		c-0.7,0.5-1.3,0.9-1.9,1.4c-11.4,8.8-19.8,22.5-22.7,38.7l-12.3,68.2c-0.1,0.4-0.1,0.7-0.1,1.1c0,0.1,0,0.3,0,0.4
		c0,0.2,0,0.4,0,0.6c0,0.2,0,0.4,0,0.6c0,0.1,0,0.3,0,0.4c0,0.2,0.1,0.5,0.1,0.7c0,0.1,0,0.2,0,0.3c0.1,0.3,0.1,0.5,0.2,0.8v0.1
		c0.1,0.3,0.2,0.5,0.3,0.8c0,0,0,0,0,0.1c0.1,0.3,0.2,0.6,0.4,0.8l0,0c0.1,0.3,0.3,0.5,0.5,0.8l0,0l0,0c1.5,2.3,3.9,3.8,6.7,3.8
		h139.1c2.8,0,5.2-1.5,6.7-3.9l0,0l0,0c0.2-0.2,0.3-0.5,0.4-0.8l0,0c0.1-0.3,0.3-0.5,0.4-0.8v-0.1c0.1-0.3,0.2-0.5,0.3-0.8
		c0-0.1,0-0.1,0-0.2c0.1-0.2,0.1-0.5,0.2-0.7c0-0.1,0-0.2,0.1-0.3c0-0.2,0.1-0.4,0.1-0.7c0-0.1,0-0.3,0-0.4c0-0.2,0-0.4,0-0.6
		C1156.9,838.4,1156.8,838.2,1156.8,838z M1079,373.9c4.7,0,8.5,3.8,8.5,8.5s-3.8,8.5-8.5,8.5s-8.5-3.8-8.5-8.5
		S1074.3,373.9,1079,373.9z"/>
	<path id="XMLID_1161_" class="st3" d="M1323.7,843c0.1-0.2,0.2-0.5,0.2-0.7c0-0.1,0-0.1,0.1-0.2c0.1-0.2,0.1-0.4,0.2-0.7
		c0-0.1,0-0.2,0.1-0.3c0-0.2,0.1-0.4,0.1-0.6c0-0.1,0-0.2,0.1-0.4c0-0.2,0.1-0.4,0.1-0.6c0-0.2,0-0.3,0-0.5s0-0.3,0-0.5s0-0.4,0-0.6
		c0-0.1,0-0.3,0-0.4c0-0.3-0.1-0.7-0.1-1l-10.7-78.8c-0.4-2.8-0.9-5.6-1.6-8.2c-4.4-16.4-14.6-28.1-26.6-30.4
		c-1.4-0.3-2.9-0.4-4.4-0.4h-7V517.2c5.3-3.3,8.8-9.1,8.8-15.8V380.1c0-10.3-8.3-18.6-18.6-18.6s-18.6,8.3-18.6,18.6v121.3
		c0,6.7,3.5,12.5,8.8,15.8v201.6h-6.7c-1.5,0-2.9,0.1-4.4,0.4c-1,0.2-1.9,0.4-2.8,0.7c-0.5,0.2-0.9,0.3-1.4,0.5
		c-0.9,0.4-1.8,0.8-2.7,1.2c-0.9,0.5-1.8,1-2.6,1.6c-0.9,0.6-1.7,1.2-2.5,1.9c-0.4,0.3-0.8,0.7-1.2,1c-0.8,0.7-1.6,1.5-2.3,2.3
		c-4.5,4.9-8.1,11.4-10.4,19.1c-1,3.2-1.7,6.6-2.2,10.1l-11,78.9c0,0.3-0.1,0.7-0.1,1c0,0.1,0,0.3,0,0.4c0,0.2,0,0.4,0,0.6
		c0,0.2,0,0.4,0,0.5s0,0.3,0,0.4c0,0.2,0,0.4,0.1,0.6c0,0.1,0,0.2,0,0.3c0,0.2,0.1,0.5,0.1,0.7c0,0.1,0,0.1,0,0.2
		c0.1,0.2,0.1,0.5,0.2,0.7v0.1c0.1,0.3,0.2,0.5,0.3,0.7c0,0,0,0,0,0.1c0.1,0.3,0.2,0.5,0.3,0.8l0,0l0,0c1.2,2.4,3.1,4,5.2,4H1318
		c2.2,0,4.1-1.6,5.3-4l0,0l0,0C1323.5,843.5,1323.6,843.3,1323.7,843L1323.7,843z M1264.3,373.9c4.7,0,8.5,3.8,8.5,8.5
		s-3.8,8.5-8.5,8.5s-8.5-3.8-8.5-8.5S1259.6,373.9,1264.3,373.9z"/>
	<path id="XMLID_1153_" class="st3" d="M943.5,757.8c-3.1-22.7-16.7-39-32.6-39h-7V517.2c5.3-3.3,8.8-9.1,8.8-15.8V380.1
		c0-10.3-8.3-18.6-18.6-18.6s-18.6,8.3-18.6,18.6v121.3c0,6.7,3.5,12.5,8.8,15.8v201.6h-6.7c-15.8,0-29.4,16.2-32.6,38.8l-11,78.9
		c-0.8,5.8,2.2,11.3,6.3,11.3h107.5c4.1,0,7.1-5.4,6.3-11.2L943.5,757.8z M894.1,373.9c4.7,0,8.5,3.8,8.5,8.5s-3.8,8.5-8.5,8.5
		s-8.5-3.8-8.5-8.5S889.5,373.9,894.1,373.9z M865.5,762l-6.3,66.9c-0.3,2.9-2.6,5-5.1,4.7c-2.6-0.3-4.4-2.9-4.1-5.8l6.3-66.9
		c0.3-2.9,2.6-5,5.1-4.7S865.8,759.1,865.5,762z M877.9,828.8c-0.2,2.9-2.4,5.1-4.9,4.9c-2.6-0.2-4.5-2.7-4.3-5.6l4-67.1
		c0.2-2.9,2.4-5.1,4.9-4.9c2.6,0.2,4.5,2.7,4.3,5.6L877.9,828.8z M894.1,833.7c-2.6,0-4.7-2.3-4.7-5.2l-0.8-67.2
		c0-2.9,2-5.3,4.6-5.3s4.7,2.3,4.7,5.2l0.8,67.2C898.7,831.3,896.7,833.7,894.1,833.7z M914.4,833.6c-2.6,0.2-4.8-2-4.9-4.9l-4-67.1
		c-0.2-2.9,1.8-5.4,4.3-5.6l0,0c2.6-0.2,4.8,2,4.9,4.9l4,67.1C918.9,830.9,916.9,833.4,914.4,833.6z M934.2,833.5
		c-2.6,0.3-4.8-1.8-5.1-4.7l-6.3-66.9c-0.3-2.9,1.6-5.5,4.1-5.8c2.6-0.3,4.8,1.8,5.1,4.7l6.3,66.9
		C938.6,830.6,936.8,833.2,934.2,833.5z"/>
	<path id="XMLID_1112_" class="st3" d="M719.5,701.7V517.2c5.3-3.3,8.8-9.1,8.8-15.8V380.1c0-10.3-8.3-18.6-18.6-18.6
		s-18.6,8.3-18.6,18.6v121.3c0,6.7,3.5,12.5,8.8,15.8v184.6c-35.9,4.8-63.6,35.5-63.6,72.7c0,40.5,32.8,73.4,73.4,73.4
		c40.5,0,73.4-32.8,73.4-73.4C783.1,737.2,755.4,706.5,719.5,701.7z M741,733.9c0.7-1,1.8-1.5,3-1.7c1.2-0.1,2.4,0.4,3.4,1.3
		c1,0.9,1.5,2.1,1.5,3.3s-0.5,2.3-1.4,3.1s-2.1,1.2-3.1,1.2c-1.1,0-2.2-0.3-3-1.1c-0.8-0.7-1.2-1.8-1.3-2.9
		C739.9,736.1,740.2,734.9,741,733.9z M740.6,761.4c1.1-0.5,2.3-0.4,3.4,0.2c1.1,0.6,2,1.6,2.3,3.1c0.2,0.7,0.2,1.4,0.2,2
		c-0.1,0.6-0.3,1.3-0.7,1.8c-0.7,1-1.7,1.7-2.9,1.8s-2.4-0.2-3.3-0.8c-0.5-0.3-0.8-0.7-1.1-1.1c-0.3-0.4-0.6-0.9-0.7-1.4
		c-0.2-1.1-0.1-2.1,0.4-3.1C738.6,762.8,739.5,761.9,740.6,761.4z M738,751.1c-0.1,1.2-0.6,2.3-1.6,3.1c-1,0.7-2.2,1-3.2,0.9
		c-1.1-0.1-2.2-0.4-2.9-1.3c-0.8-0.7-1.2-1.8-1.3-2.9c-0.1-1.1,0.2-2.3,0.9-3.2c0.7-1,1.8-1.5,3.1-1.6c1.2,0,2.5,0.5,3.6,1.5
		C737.5,748.6,738,750,738,751.1z M726.1,726c0.4-1.2,1.2-2,2.3-2.5c0.5-0.2,1.1-0.4,1.8-0.4c0.6,0,1.3,0.1,1.9,0.4
		c2.4,1.2,3.4,3.9,2.2,6s-3.8,3.1-5.8,2.1c-0.5-0.3-1-0.5-1.3-0.9c-0.4-0.4-0.7-0.8-0.9-1.3C725.8,728.3,725.7,727.1,726.1,726z
		 M724.7,765.4c0.2,0.2,0.4,0.4,0.6,0.6c0.2,0.2,0.3,0.5,0.4,0.7c0.3,0.5,0.4,1.1,0.4,1.6s-0.1,1-0.3,1.4c-0.4,0.9-1.1,1.4-2,1.6
		c-0.9,0.2-1.8,0-2.5-0.3c-0.3-0.2-0.7-0.4-1-0.6c-0.3-0.2-0.5-0.5-0.6-0.8c-0.1-0.2-0.1-0.3-0.2-0.5c-0.1-0.2-0.1-0.3-0.1-0.5
		c0-0.4,0-0.8,0.1-1.1c0.2-0.8,0.6-1.6,1.3-2.2c0.7-0.6,1.6-0.8,2.5-0.6C723.9,764.8,724.3,765.1,724.7,765.4z M722.6,740.1
		c0.6,1.1,0.6,2.3,0.2,3.4c-0.5,1.1-1.4,2-2.4,2.5s-2.1,0.6-3.1,0.4c-0.5-0.1-1-0.4-1.4-0.7s-0.8-0.7-1.1-1.1
		c-0.6-0.9-1-2.1-0.8-3.3c0.1-1.2,0.8-2.2,1.8-2.9c0.5-0.3,1.1-0.6,1.8-0.7c0.6-0.1,1.3,0,2,0.2C720.9,738.1,722,739.1,722.6,740.1z
		 M700.7,782.5c0.8,0,1.5,0.2,2.1,0.6c0.3,0.2,0.5,0.5,0.7,0.8s0.3,0.7,0.4,1.1c0.2,0.8,0.1,1.7-0.3,2.5c-0.4,0.8-1.1,1.4-2,1.6
		c-0.5,0.1-1,0.1-1.5-0.1c-0.5-0.1-1-0.4-1.5-0.7c-0.9-0.7-1.4-1.7-1.4-2.7c0-0.9,0.4-1.8,1.1-2.3
		C699,782.7,699.9,782.5,700.7,782.5z M700.7,766.4c-0.8,0-1.7-0.3-2.4-0.8c-0.7-0.6-1.2-1.4-1.1-2.3c0-0.9,0.5-2,1.4-2.7
		c0.5-0.3,1-0.6,1.5-0.7c0.5-0.1,1-0.1,1.5-0.1c0.9,0.2,1.7,0.8,2,1.6c0.4,0.8,0.4,1.7,0.3,2.5c-0.1,0.4-0.2,0.8-0.4,1.1
		s-0.4,0.6-0.7,0.8C702.2,766.2,701.5,766.4,700.7,766.4z M703.6,745.7c-0.4,0.3-0.9,0.6-1.4,0.7c-1.1,0.2-2.1,0.1-3.1-0.4
		s-1.9-1.4-2.4-2.5s-0.4-2.3,0.2-3.4c0.6-1.1,1.6-2,3.1-2.3c0.7-0.2,1.4-0.2,2-0.2c0.6,0.1,1.3,0.3,1.8,0.7c1,0.7,1.7,1.7,1.8,2.9
		s-0.2,2.4-0.8,3.3C704.4,745,704,745.3,703.6,745.7z M711.8,719.5h4.3c0.5,0.3,1,0.7,1.4,1.2c0.7,0.9,1,2.1,0.8,3.3
		s-0.9,2.2-1.7,2.9c-0.9,0.7-1.9,0.9-3,0.9c-2.2-0.1-4-2.2-4.1-4.6C709.5,721.6,710.4,720.2,711.8,719.5z M713.7,757.1
		c0.6,0.2,1.1,0.4,1.5,0.7s0.7,0.7,1,1.1c0.4,0.8,0.4,1.8,0,2.6s-1.1,1.4-1.8,1.8c-0.4,0.2-0.7,0.3-1.1,0.4c-0.4,0-0.7,0.1-1.1,0
		c-0.7-0.1-1.3-0.6-1.8-1.2c-0.5-0.6-0.8-1.5-0.9-2.4c0-0.9,0.4-1.8,1.1-2.3C711.4,757.1,712.5,756.8,713.7,757.1z M710.4,786.5
		c0.5-0.6,1.1-1.1,1.8-1.2c0.3-0.1,0.7-0.1,1.1,0c0.4,0,0.7,0.2,1.1,0.4c0.7,0.4,1.4,0.9,1.8,1.8c0.4,0.8,0.4,1.8,0,2.6
		c-0.2,0.4-0.5,0.8-1,1.1c-0.4,0.3-0.9,0.5-1.5,0.7c-1.1,0.2-2.2,0-3-0.6s-1.1-1.4-1.1-2.3C709.6,788,709.9,787.1,710.4,786.5z
		 M709.7,373.9c4.7,0,8.5,3.8,8.5,8.5s-3.8,8.5-8.5,8.5s-8.5-3.8-8.5-8.5S705,373.9,709.7,373.9z M693.2,722.7
		c0.6-1.1,1.6-1.8,2.9-2.1c2.6-0.8,5.1,1,5.4,3.4c0.4,2.5-1.1,4.6-3.3,5.2c-1.1,0.3-2.2,0-3.2-0.5s-1.8-1.4-2.2-2.5
		C692.5,724.9,692.6,723.7,693.2,722.7z M689.5,747.7c0.7,1,1,2.2,0.9,3.2c-0.1,1.1-0.4,2.2-1.3,2.9c-0.7,0.8-1.8,1.2-2.9,1.3
		c-1.1,0.1-2.3-0.2-3.2-0.9c-1-0.7-1.5-1.8-1.6-3.1c0-1.2,0.5-2.5,1.5-3.6c1.1-1,2.4-1.5,3.6-1.5
		C687.7,746.2,688.8,746.8,689.5,747.7z M677.3,730.9c0.1-0.6,0.3-1.1,0.7-1.7c0.3-0.5,0.8-1,1.3-1.3c2.3-1.4,5.1-0.8,6.2,1.4
		c1.1,2.1,0.5,4.9-1.4,6c-0.5,0.3-1,0.5-1.5,0.6s-1.1,0.1-1.6,0c-1.1-0.2-2.2-0.8-2.9-1.7C677.4,733.2,677.1,732,677.3,730.9z
		 M675.4,761.6c1.1-0.6,2.3-0.6,3.4-0.2c1.1,0.5,2,1.4,2.5,2.4s0.6,2.1,0.4,3.1c-0.1,0.5-0.4,1-0.7,1.4s-0.7,0.8-1.1,1.1
		c-0.9,0.6-2.1,1-3.3,0.8c-1.2-0.1-2.2-0.8-2.9-1.8c-0.3-0.5-0.6-1.1-0.7-1.8c-0.1-0.6,0-1.3,0.2-2
		C673.4,763.2,674.4,762.1,675.4,761.6z M665.8,740.3c0.4-0.5,0.9-1,1.4-1.3c0.6-0.3,1.1-0.4,1.7-0.5c1.2-0.1,2.3,0.3,3.2,1.1
		s1.4,2,1.5,3c0,0.5,0,1.1-0.2,1.6s-0.3,1-0.7,1.5c-0.7,0.9-1.7,1.4-2.8,1.6c-1.1,0.2-2.3,0-3.3-0.7s-1.7-1.7-1.9-2.9
		C664.7,742.6,665,741.3,665.8,740.3z M657.1,756.4c0.5-1.3,1.3-2.2,2.4-2.7c1-0.5,2.3-0.5,3.4,0c1.1,0.5,1.9,1.4,2.4,2.4
		s0.6,2.1,0.2,3.2c-0.2,0.5-0.5,1-0.9,1.4c-0.3,0.4-0.8,0.7-1.2,1c-1,0.5-2.2,0.7-3.4,0.4s-2.1-1.1-2.7-2.1
		c-0.3-0.5-0.5-1.1-0.5-1.7C656.8,757.6,656.9,757,657.1,756.4z M654.1,774.4c0.1-2.7,2.2-4.7,4.7-4.4c2.4,0.2,4.3,2.2,4.2,4.4
		c0.1,2.2-1.8,4.2-4.2,4.4C656.3,779.1,654.2,777.1,654.1,774.4z M662.9,795.2c-1.1,0.5-2.4,0.5-3.4,0s-1.9-1.5-2.4-2.7
		c-0.2-0.6-0.4-1.3-0.3-1.9c0.1-0.6,0.3-1.2,0.5-1.7c0.6-1,1.5-1.8,2.7-2.1s2.4-0.1,3.4,0.4c0.5,0.3,0.9,0.6,1.2,1s0.7,0.9,0.9,1.4
		c0.4,1,0.3,2.2-0.2,3.2C664.8,793.8,664.1,794.7,662.9,795.2z M672.2,809.2c-0.9,0.8-2.1,1.2-3.2,1.1c-0.6,0-1.2-0.2-1.7-0.5
		c-0.6-0.3-1-0.7-1.4-1.3c-0.8-1.1-1.1-2.3-1-3.5c0.2-1.1,0.9-2.2,1.9-2.9s2.2-0.8,3.3-0.7s2.1,0.7,2.8,1.6c0.3,0.4,0.5,1,0.7,1.5
		s0.2,1,0.2,1.6C673.6,807.3,673.1,808.4,672.2,809.2z M675.4,787.3c-1.1-0.6-2-1.6-2.3-3.1c-0.2-0.7-0.2-1.4-0.2-2
		c0.1-0.6,0.3-1.3,0.7-1.8c0.7-1,1.7-1.7,2.9-1.8s2.4,0.2,3.3,0.8c0.5,0.3,0.8,0.7,1.1,1.1c0.3,0.4,0.6,0.9,0.7,1.4
		c0.2,1.1,0.1,2.1-0.4,3.1s-1.4,1.9-2.5,2.4C677.7,787.9,676.5,787.9,675.4,787.3z M685.5,819.6c-1.1,2.2-3.9,2.8-6.2,1.4
		c-0.6-0.3-1-0.8-1.3-1.3s-0.6-1.1-0.7-1.7c-0.2-1.2,0.1-2.3,0.8-3.3c0.8-1,1.8-1.5,2.9-1.7c0.5-0.1,1.1-0.1,1.6,0s1,0.3,1.5,0.6
		C686,814.7,686.6,817.4,685.5,819.6z M689.5,801.1c-0.7,1-1.8,1.5-3.1,1.6c-1.2,0-2.5-0.5-3.6-1.5c-1-1.1-1.5-2.4-1.5-3.6
		c0.1-1.2,0.6-2.3,1.6-3.1c1-0.7,2.2-1,3.2-0.9c1.1,0.1,2.2,0.4,2.9,1.3c0.8,0.7,1.2,1.8,1.3,2.9
		C690.5,798.9,690.2,800.1,689.5,801.1z M691.9,774.4c0-0.6,0.1-1.1,0.3-1.6s0.5-0.9,0.9-1.2c0.7-0.6,1.6-0.8,2.5-0.6
		s1.6,0.8,2.1,1.4c0.3,0.3,0.4,0.6,0.6,1c0.2,0.3,0.2,0.7,0.2,1c0,0.4-0.1,0.7-0.2,1c-0.1,0.3-0.3,0.7-0.6,1
		c-0.5,0.6-1.2,1.1-2.1,1.4c-0.9,0.2-1.8,0-2.5-0.6c-0.3-0.3-0.7-0.7-0.9-1.2C692.1,775.5,691.9,775,691.9,774.4z M701.5,824.9
		c-0.3,2.4-2.8,4.2-5.4,3.4c-1.3-0.3-2.3-1.1-2.9-2.1c-0.6-1.1-0.7-2.3-0.3-3.4c0.4-1.2,1.2-2,2.2-2.5s2.1-0.8,3.2-0.5
		C700.4,820.3,701.9,822.5,701.5,824.9z M705.6,807.6c-0.1,1.2-0.8,2.2-1.8,2.9c-0.5,0.3-1.1,0.6-1.8,0.7c-0.6,0.1-1.3,0-2-0.2
		c-1.4-0.3-2.5-1.3-3.1-2.3c-0.6-1.1-0.6-2.3-0.2-3.4c0.5-1.1,1.4-2,2.4-2.5s2.1-0.6,3.1-0.4c0.5,0.1,1,0.4,1.4,0.7s0.8,0.7,1.1,1.1
		C705.3,805.2,705.7,806.4,705.6,807.6z M717.5,828.2c-0.7,0.9-1.9,1.7-3.2,1.7c-2.7,0.1-4.8-1.7-4.8-4.2c0-2.4,1.9-4.5,4.1-4.6
		c1.1,0,2.2,0.2,3,0.9c0.9,0.7,1.5,1.7,1.7,2.9C718.5,826.1,718.2,827.2,717.5,828.2z M722.6,808.7c-0.6,1.1-1.6,2-3.1,2.3
		c-0.7,0.2-1.4,0.2-2,0.2c-0.6-0.1-1.3-0.3-1.8-0.7c-1-0.7-1.7-1.7-1.8-2.9s0.2-2.4,0.8-3.3c0.3-0.5,0.7-0.8,1.1-1.1
		c0.4-0.3,0.9-0.6,1.4-0.7c1.1-0.2,2.1-0.1,3.1,0.4s1.9,1.4,2.4,2.5C723.2,806.4,723.2,807.6,722.6,808.7z M725.3,782.9
		c-0.2,0.2-0.4,0.4-0.6,0.6c-0.4,0.3-0.8,0.6-1.3,0.7c-0.9,0.2-1.8,0-2.5-0.6s-1.1-1.4-1.3-2.2c-0.1-0.4-0.1-0.8-0.1-1.1
		c0-0.2,0-0.4,0.1-0.5c0-0.2,0.1-0.3,0.2-0.5c0.2-0.3,0.4-0.6,0.6-0.8c0.3-0.2,0.6-0.4,1-0.6c0.7-0.3,1.6-0.5,2.5-0.3s1.6,0.8,2,1.6
		c0.2,0.4,0.3,0.9,0.3,1.4s-0.1,1.1-0.4,1.6C725.6,782.4,725.5,782.6,725.3,782.9z M732.1,825.4c-0.6,0.3-1.2,0.4-1.9,0.4
		c-0.6,0-1.2-0.1-1.8-0.4c-1.1-0.5-1.9-1.3-2.3-2.5c-0.4-1.2-0.3-2.4,0.1-3.4c0.2-0.5,0.5-1,0.9-1.3c0.4-0.4,0.8-0.7,1.3-0.9
		c2-1,4.6,0,5.8,2.1C735.5,821.5,734.5,824.2,732.1,825.4z M736.6,801.3c-1.1,1-2.4,1.5-3.6,1.5c-1.2-0.1-2.3-0.6-3.1-1.6
		c-0.7-1-1-2.2-0.9-3.2c0.1-1.1,0.4-2.2,1.3-2.9c0.7-0.8,1.8-1.2,2.9-1.3c1.1-0.1,2.3,0.2,3.2,0.9c1,0.7,1.5,1.8,1.6,3.1
		C738,798.9,737.5,800.2,736.6,801.3z M738.1,785.1c-0.5-1-0.6-2.1-0.4-3.1c0.1-0.5,0.4-1,0.7-1.4s0.7-0.8,1.1-1.1
		c0.9-0.6,2.1-1,3.3-0.8c1.2,0.1,2.2,0.8,2.9,1.8c0.3,0.5,0.6,1.1,0.7,1.8c0.1,0.6,0,1.3-0.2,2c-0.3,1.4-1.3,2.5-2.3,3.1
		c-1.1,0.6-2.3,0.6-3.4,0.2C739.5,787,738.6,786.1,738.1,785.1z M747.4,815.3c-1,0.9-2.2,1.4-3.4,1.3c-1.2-0.1-2.3-0.7-3-1.7
		s-1-2.1-0.9-3.2c0.1-1.1,0.5-2.2,1.3-2.9s1.9-1.1,3-1.1s2.2,0.4,3.1,1.2c0.9,0.8,1.4,2,1.4,3.1
		C748.9,813.3,748.4,814.4,747.4,815.3z M752.5,746.3c2-1.4,4.8-0.6,6.2,1.7c1.2,2.4,0.3,5.2-2,6.1c-2.3,0.9-4.9,0.1-5.8-1.9
		C749.7,750.3,750.4,747.6,752.5,746.3z M758.7,800.9c-1.4,2.3-4.2,3.1-6.2,1.7c-2-1.4-2.8-4-1.6-5.9c0.9-2,3.6-2.8,5.8-1.9
		C758.9,795.7,759.8,798.5,758.7,800.9z M764.6,783.6c-0.1,0.7-0.3,1.3-0.6,1.8s-0.8,0.9-1.3,1.3c-1,0.6-2.2,0.9-3.4,0.6
		c-1.2-0.3-2.1-1.1-2.7-2c-0.3-0.5-0.5-0.9-0.6-1.5c-0.1-0.5-0.2-1.1-0.1-1.6c0.2-1.1,0.8-2,1.7-2.7s2-1.1,3.2-1s2.3,0.7,3.1,1.6
		C764.4,781,764.8,782.3,764.6,783.6z M763.9,763.5c0.3,0.5,0.5,1.1,0.6,1.8c0.2,1.3-0.1,2.6-0.8,3.5s-1.8,1.5-3.1,1.6
		c-1.2,0.1-2.3-0.3-3.2-1s-1.6-1.6-1.7-2.7c-0.1-0.6,0-1.1,0.1-1.6s0.3-1,0.6-1.5c0.6-0.9,1.6-1.7,2.7-2c1.2-0.3,2.4-0.1,3.4,0.6
		C763.1,762.5,763.6,763,763.9,763.5z"/>
	<path id="XMLID_1109_" class="st3" d="M533.7,758V517.2c5.3-3.3,8.8-9.1,8.8-15.8V380.1c0-10.3-8.3-18.6-18.6-18.6
		s-18.6,8.3-18.6,18.6v121.3c0,6.7,3.5,12.5,8.8,15.8V758c-37.8,0.7-67,5.6-67,11.6l0,0c0,42.4,34.4,76.8,76.8,76.8l0,0
		c42.4,0,76.8-34.4,76.8-76.8l0,0C600.7,763.6,571.5,758.7,533.7,758z M523.9,373.9c4.7,0,8.5,3.8,8.5,8.5s-3.8,8.5-8.5,8.5
		s-8.5-3.8-8.5-8.5S519.2,373.9,523.9,373.9z"/>
	<path id="XMLID_1101_" class="st3" d="M163.6,694.6V517.2c5.3-3.3,8.8-9.1,8.8-15.8V380.1c0-10.3-8.3-18.6-18.6-18.6
		s-18.6,8.3-18.6,18.6v121.3c0,6.7,3.5,12.5,8.8,15.8v177.3c-10.4,5.5-19,20.1-25.5,43.8c-6.8,24.6-9.2,51.9-9.2,64.2
		c0,26.7,20,48.5,44.5,48.5s44.5-21.8,44.5-48.5c0-12.2-2.5-39.3-9.4-64.2C182.5,715.1,173.8,700.3,163.6,694.6z M153.8,845.6
		c-2-3.3-5.3-17.8-5.3-43.1c0-29.8,1.8-87.3,5.2-102.6c3.3,15.1,5.3,71.7,5.3,102.6C159.1,827.8,155.8,842.3,153.8,845.6z
		 M147.7,707.5c-0.9,7.5-1.7,18-2.4,31.3c-1.2,24.4-1.7,51.4-1.7,63.7c0,12.4,0.8,24.1,2.3,33c0.6,3.6,1.3,6.6,2,8.9
		c-8.7-5.4-15.2-22.4-15.2-41.8c0-12.1,1.3-38.9,5.1-63.2c3.5-22.9,7.6-33.5,10.8-38.4C148.3,702.8,148,704.9,147.7,707.5z
		 M159.6,844.3c0.8-2.3,1.4-5.2,2-8.9c1.5-8.8,2.3-20.5,2.3-33c0-12.1-0.5-39-1.7-63.7c-0.7-13.3-1.5-23.8-2.4-31.3
		c-0.3-2.5-0.6-4.6-0.9-6.4c3.2,4.9,7.2,15.5,10.7,38.3c3.8,24.5,5.2,51.2,5.2,63.2C174.8,821.9,168.3,838.9,159.6,844.3z
		 M153.8,373.9c4.7,0,8.5,3.8,8.5,8.5s-3.8,8.5-8.5,8.5s-8.5-3.8-8.5-8.5S149.1,373.9,153.8,373.9z M114.2,802.5
		c0-25.8,8.7-85.1,28.8-101.4c-4,7.6-7.3,20-9.9,37.5c-3.8,24.5-5.1,51.6-5.1,63.9c0,17.2,4.6,32.1,11.6,40.7
		C124.7,836.8,114.2,821,114.2,802.5z M168.1,843.1c7-8.6,11.6-23.4,11.6-40.7c0-12.1-1.4-39.1-5.2-63.9c-2.7-17.3-6-29.7-9.9-37.3
		c19.8,16.5,28.8,76.3,28.8,101.3C193.4,821,182.9,836.8,168.1,843.1z"/>
	<path id="XMLID_1098_" class="st3" d="M348.7,741.9V517.2c5.3-3.3,8.8-9.1,8.8-15.8V380.1c0-10.3-8.3-18.6-18.6-18.6
		c-10.3,0-18.6,8.3-18.6,18.6v121.3c0,6.7,3.5,12.5,8.8,15.8v224.7c-25,4.1-44,23.8-44,47.5c0,0.9,0,1.7,0.1,2.6
		c-0.1,1-0.1,1.9-0.1,2.9c0,29.7,24.1,53.8,53.8,53.8s53.8-24.1,53.8-53.8c0-1,0-1.9-0.1-2.9c0.1-0.9,0.1-1.7,0.1-2.6
		C392.7,765.7,373.7,746,348.7,741.9z M338.9,373.9c4.7,0,8.5,3.8,8.5,8.5s-3.8,8.5-8.5,8.5s-8.5-3.8-8.5-8.5
		S334.2,373.9,338.9,373.9z"/>
</g>
<path id="XMLID_303_" class="st4" d="M869.9,845.6l4-67.1c0.1-1.1-0.2-2.2-0.7-3.1c-0.8-1.4-2.1-2.3-3.6-2.5c-2.6-0.2-4.8,2-4.9,4.9
	l-3.3,55.3l-0.7,11.8c-0.1,2,0.8,3.8,2.2,4.8c0.6,0.4,1.3,0.7,2.1,0.8c1,0.1,2-0.2,2.8-0.8C868.9,848.9,869.8,847.4,869.9,845.6z"/>
<path id="XMLID_304_" class="st4" d="M851.1,845.7l6.3-66.9c0.1-1.5-0.3-2.8-1-3.9c-0.7-1-1.8-1.7-3.1-1.9c-2.6-0.3-4.8,1.8-5.1,4.7
	l-5.3,55.8l-1,11c-0.2,2.1,0.8,4.1,2.3,5.1c0.5,0.3,1.1,0.6,1.8,0.7c1,0.1,2-0.1,2.8-0.7C850,848.9,850.9,847.5,851.1,845.7z"/>
<path id="XMLID_305_" class="st4" d="M890.7,845.3l-0.2-13.6l-0.6-53.7c0-2.9-2.1-5.2-4.7-5.2c-2.2,0-3.9,1.7-4.4,4
	c-0.1,0.4-0.2,0.9-0.2,1.3l0.8,67.2c0,1.8,0.8,3.4,2.1,4.3c0.8,0.6,1.7,0.9,2.6,0.9c0.9,0,1.8-0.3,2.5-0.9
	C889.8,848.8,890.7,847.2,890.7,845.3z"/>
<path id="XMLID_306_" class="st4" d="M910.6,844.9l-0.7-11.8l-3.3-55.3c-0.2-2.9-2.4-5.1-4.9-4.9l0,0c-1.5,0.1-2.9,1.1-3.6,2.5
	c-0.5,0.9-0.8,2-0.7,3.1l4,67.1c0.1,1.7,1,3.2,2.2,4.1c0.8,0.6,1.8,0.9,2.8,0.8c0.8-0.1,1.5-0.4,2.1-0.8
	C909.9,848.7,910.8,846.9,910.6,844.9z"/>
<path id="XMLID_307_" class="st4" d="M930.3,844.6l-1-11l-5.3-55.8c-0.3-2.9-2.6-5-5.1-4.7c-1.3,0.2-2.3,0.9-3.1,1.9s-1.2,2.4-1,3.9
	l6.3,66.9c0.2,1.7,1.1,3.2,2.3,4c0.8,0.5,1.8,0.8,2.8,0.7c0.7-0.1,1.3-0.3,1.8-0.7C929.5,848.7,930.5,846.8,930.3,844.6z"/>
<path id="XMLID_308_" class="st4" d="M853.3,773.1c1.3,0.2,2.3,0.9,3.1,1.9l1-11c0.3-2.9-1.6-5.5-4.1-5.8c-2.6-0.3-4.8,1.8-5.1,4.7
	l-6.3,66.9c-0.1,1.5,0.3,2.8,1,3.9l5.3-55.8C848.5,774.9,850.8,772.8,853.3,773.1z"/>
<path id="XMLID_309_" class="st4" d="M869.5,773c1.5,0.1,2.9,1.1,3.6,2.5l0.7-11.8c0.2-2.9-1.8-5.4-4.3-5.6c-2.6-0.2-4.8,2-4.9,4.9
	l-4,67.1c-0.1,1.1,0.2,2.2,0.7,3.1l3.3-55.3C864.8,775,867,772.8,869.5,773z"/>
<path id="XMLID_310_" class="st4" d="M885.2,772.9c2.6,0,4.7,2.3,4.7,5.2l0.6,53.7c0.1-0.4,0.2-0.9,0.2-1.3l-0.8-67.2
	c0-2.9-2.1-5.2-4.7-5.2c-2.6,0-4.6,2.4-4.6,5.3l0.2,13.6C881.3,774.6,883,772.9,885.2,772.9z"/>
<path id="XMLID_311_" class="st4" d="M901.7,773L901.7,773c2.6-0.2,4.8,2,4.9,4.9l3.3,55.3c0.5-0.9,0.8-2,0.7-3.1l-4-67.1
	c-0.2-2.9-2.4-5.1-4.9-4.9l0,0c-2.6,0.2-4.5,2.7-4.3,5.6l0.7,11.8C898.9,774.1,900.2,773.1,901.7,773z"/>
<path id="XMLID_312_" class="st4" d="M945.1,845.7c-1.2,2.4-3.1,4-5.3,4H928c-0.5,0.3-1.1,0.6-1.8,0.7c-1,0.1-2-0.1-2.8-0.7h-15
	c-0.6,0.4-1.3,0.7-2.1,0.8c-1,0.1-2-0.2-2.8-0.8h-15c-0.7,0.5-1.6,0.9-2.5,0.9c-1,0-1.9-0.3-2.6-0.9h-15.7c-0.8,0.6-1.8,0.9-2.8,0.8
	c-0.8-0.1-1.5-0.4-2.1-0.8h-14c-0.8,0.5-1.8,0.8-2.8,0.7c-0.7-0.1-1.3-0.3-1.8-0.7h-11.9c-2.2,0-4.1-1.6-5.2-4l-1.1,7.6
	c-0.8,5.8,2.2,11.3,6.3,11.3h107.5c4.1,0,7.1-5.4,6.3-11.2L945.1,845.7z"/>
<path id="XMLID_313_" class="st4" d="M918.9,773.1c2.6-0.3,4.8,1.8,5.1,4.7l5.3,55.8c0.8-1,1.2-2.4,1-3.9l-6.3-66.9
	c-0.3-2.9-2.6-5-5.1-4.7c-2.6,0.3-4.4,2.9-4.1,5.8l1,11C916.5,774,917.6,773.3,918.9,773.1z"/>
<path id="XMLID_489_" class="st2" d="M40.6,300.3h1318.9v19.1H40.6V300.3z"/>
<path id="XMLID_190_" class="st2" d="M40.6,318.4h1318.9v9.5H40.6V318.4z"/>
<path id="XMLID_149_" class="st5" d="M1052.3,467.2h19.6v238.7h-19.6V467.2z"/>
<path id="XMLID_167_" class="st6" d="M1062.1,347.8c-10.3,0-18.6,8.3-18.6,18.6v121.3c0,10.3,8.3,18.6,18.6,18.6s18.6-8.3,18.6-18.6
	V366.4C1080.6,356.2,1072.3,347.8,1062.1,347.8z M1062.1,377.2c-4.7,0-8.5-3.8-8.5-8.5s3.8-8.5,8.5-8.5s8.5,3.8,8.5,8.5
	S1066.7,377.2,1062.1,377.2z"/>
<path id="XMLID_152_" class="st5" d="M1131.6,834.1H992.5c-5.3,0-9.2-5.4-8.2-11.3l12.3-68.2c5.2-28.8,27.6-49.5,53.7-49.5h23.7
	c26.1,0,48.7,20.8,53.8,49.7l12,68C1140.8,828.7,1136.9,834.1,1131.6,834.1z"/>
<path id="XMLID_280_" class="st7" d="M996.7,770.1c5.2-28.8,27.6-49.5,53.7-49.5h23.7c26.1,0,48.7,20.8,53.8,49.7l10.5,59.8
	c1.3-2,1.9-4.6,1.4-7.4l-12-68c-5.1-28.9-27.6-49.7-53.8-49.7h-23.7c-26.1,0-48.5,20.7-53.7,49.5l-12.3,68.2
	c-0.5,2.7,0.1,5.4,1.5,7.4L996.7,770.1z"/>
<path id="XMLID_266_" class="st5" d="M1237.6,467.2h19.6v238.7h-19.6V467.2z"/>
<path id="XMLID_256_" class="st6" d="M1247.4,347.8c-10.3,0-18.6,8.3-18.6,18.6v121.3c0,10.3,8.3,18.6,18.6,18.6
	c10.3,0,18.6-8.3,18.6-18.6V366.4C1266,356.2,1257.7,347.8,1247.4,347.8z M1247.4,377.2c-4.7,0-8.5-3.8-8.5-8.5s3.8-8.5,8.5-8.5
	s8.5,3.8,8.5,8.5S1252.1,377.2,1247.4,377.2z"/>
<path id="XMLID_255_" class="st5" d="M1301.2,834.1h-107.5c-4.1,0-7.1-5.4-6.3-11.3l11-78.9c3.1-22.6,16.8-38.8,32.6-38.8h33.3
	c15.9,0,29.5,16.3,32.6,39l10.7,78.8C1308.3,828.7,1305.2,834.1,1301.2,834.1z"/>
<path id="XMLID_281_" class="st7" d="M1198.3,758.8c3.1-22.6,16.8-38.8,32.6-38.8h33.3c15.9,0,29.5,16.3,32.6,39l9.7,71
	c1-2,1.4-4.6,1.1-7.2l-10.7-78.8c-3.1-22.7-16.7-39-32.6-39H1231c-15.8,0-29.4,16.2-32.6,38.8l-11,78.9c-0.4,2.7,0.1,5.3,1.1,7.3
	L1198.3,758.8z"/>
<path id="XMLID_181_" class="st5" d="M867.4,467.2H887v238.7h-19.6V467.2z"/>
<path id="XMLID_157_" class="st6" d="M877.2,347.8c-10.3,0-18.6,8.3-18.6,18.6v121.3c0,10.3,8.3,18.6,18.6,18.6s18.6-8.3,18.6-18.6
	V366.4C895.8,356.2,887.5,347.8,877.2,347.8z M877.2,377.2c-4.7,0-8.5-3.8-8.5-8.5s3.8-8.5,8.5-8.5s8.5,3.8,8.5,8.5
	S881.9,377.2,877.2,377.2z"/>
<path id="XMLID_592_" class="st5" d="M937.3,822.9l-10.7-78.8c-3.1-22.7-16.7-39-32.6-39h-33.3c-15.8,0-29.4,16.2-32.6,38.8
	l-11,78.9c-0.8,5.8,2.2,11.3,6.3,11.3H931C935,834.1,938.1,828.7,937.3,822.9z M848.6,748.3l-6.3,66.9c-0.3,2.9-2.6,5-5.1,4.7
	c-2.6-0.3-4.4-2.9-4.1-5.8l6.3-66.9c0.3-2.9,2.6-5,5.1-4.7S848.9,745.4,848.6,748.3z M861,815.1c-0.2,2.9-2.4,5.1-4.9,4.9
	c-2.6-0.2-4.5-2.7-4.3-5.6l4-67.1c0.2-2.9,2.4-5.1,4.9-4.9c2.6,0.2,4.5,2.7,4.3,5.6L861,815.1z M877.2,820L877.2,820
	c-2.6,0-4.7-2.3-4.7-5.2l-0.8-67.2c0-2.9,2-5.3,4.6-5.3s4.7,2.3,4.7,5.2l0.8,67.2C881.8,817.6,879.8,820,877.2,820z M897.5,819.9
	c-2.6,0.2-4.8-2-4.9-4.9l-4-67.1c-0.2-2.9,1.8-5.4,4.3-5.6l0,0c2.6-0.2,4.8,2,4.9,4.9l4,67.1C902,817.2,900,819.7,897.5,819.9z
	 M917.3,819.8c-2.6,0.3-4.8-1.8-5.1-4.7l-6.3-66.9c-0.3-2.9,1.6-5.5,4.1-5.8c2.6-0.3,4.8,1.8,5.1,4.7l6.3,66.9
	C921.7,816.9,919.9,819.5,917.3,819.8z"/>
<path id="XMLID_55_" class="st5" d="M683,467.2h19.6v238.7H683V467.2z"/>
<path id="XMLID_52_" class="st6" d="M692.8,347.8c-10.3,0-18.6,8.3-18.6,18.6v121.3c0,10.3,8.3,18.6,18.6,18.6s18.6-8.3,18.6-18.6
	V366.4C711.4,356.2,703.1,347.8,692.8,347.8z M692.8,377.2c-4.7,0-8.5-3.8-8.5-8.5s3.8-8.5,8.5-8.5s8.5,3.8,8.5,8.5
	S697.5,377.2,692.8,377.2z"/>
<path id="XMLID_336_" class="st5" d="M692.8,687.4c-40.5,0-73.4,32.8-73.4,73.4c0,40.5,32.8,73.4,73.4,73.4
	c40.5,0,73.4-32.8,73.4-73.4S733.3,687.4,692.8,687.4z M745.7,748.5c0.5,0.3,1,0.7,1.3,1.3c0.3,0.5,0.5,1.1,0.6,1.8
	c0.2,1.3-0.1,2.6-0.8,3.5s-1.8,1.5-3.1,1.6c-1.2,0.1-2.3-0.3-3.2-1s-1.6-1.6-1.7-2.7c-0.1-0.6,0-1.1,0.1-1.6s0.3-1,0.6-1.5
	c0.6-0.9,1.6-1.7,2.7-2C743.5,747.7,744.7,747.9,745.7,748.5z M724.1,720.2c0.7-1,1.8-1.5,3-1.7c1.2-0.1,2.4,0.4,3.4,1.3
	c1,0.9,1.5,2.1,1.5,3.3s-0.5,2.3-1.4,3.1s-2.1,1.2-3.1,1.2c-1.1,0-2.2-0.3-3-1.1c-0.8-0.7-1.2-1.8-1.3-2.9
	C723,722.4,723.3,721.2,724.1,720.2z M723.7,747.7c1.1-0.5,2.3-0.4,3.4,0.2c1.1,0.6,2,1.6,2.3,3.1c0.2,0.7,0.2,1.4,0.2,2
	c-0.1,0.6-0.3,1.3-0.7,1.8c-0.7,1-1.7,1.7-2.9,1.8s-2.4-0.2-3.3-0.8c-0.5-0.3-0.8-0.7-1.1-1.1c-0.3-0.4-0.6-0.9-0.7-1.4
	c-0.2-1.1-0.1-2.1,0.4-3.1C721.7,749.1,722.6,748.2,723.7,747.7z M721.1,737.4c-0.1,1.2-0.6,2.3-1.6,3.1c-1,0.7-2.2,1-3.2,0.9
	c-1.1-0.1-2.2-0.4-2.9-1.3c-0.8-0.7-1.2-1.8-1.3-2.9c-0.1-1.1,0.2-2.3,0.9-3.2c0.7-1,1.8-1.5,3.1-1.6c1.2,0,2.5,0.5,3.6,1.5
	C720.6,735,721.1,736.3,721.1,737.4z M709.2,712.3c0.4-1.2,1.2-2,2.3-2.5c0.5-0.2,1.1-0.4,1.8-0.4c0.6,0,1.3,0.1,1.9,0.4
	c2.4,1.2,3.4,3.9,2.2,6s-3.8,3.1-5.8,2.1c-0.5-0.3-1-0.5-1.3-0.9c-0.4-0.4-0.7-0.8-0.9-1.3C708.9,714.6,708.8,713.4,709.2,712.3z
	 M707.8,751.7c0.2,0.2,0.4,0.4,0.6,0.6c0.2,0.2,0.3,0.5,0.4,0.7c0.3,0.5,0.4,1.1,0.4,1.6s-0.1,1-0.3,1.4c-0.4,0.9-1.1,1.4-2,1.6
	c-0.9,0.2-1.8,0-2.5-0.3c-0.3-0.2-0.7-0.4-1-0.6c-0.3-0.2-0.5-0.5-0.6-0.8c-0.1-0.2-0.1-0.3-0.2-0.5c-0.1-0.2-0.1-0.3-0.1-0.5
	c0-0.4,0-0.8,0.1-1.1c0.2-0.8,0.6-1.6,1.3-2.2c0.7-0.6,1.6-0.8,2.5-0.6C707,751.1,707.4,751.4,707.8,751.7z M702.6,724.1
	c1.4,0.3,2.5,1.3,3.1,2.3c0.6,1.1,0.6,2.3,0.2,3.4c-0.5,1.1-1.4,2-2.4,2.5s-2.1,0.6-3.1,0.4c-0.5-0.1-1-0.4-1.4-0.7
	s-0.8-0.7-1.1-1.1c-0.6-0.9-1-2.1-0.8-3.3c0.1-1.2,0.8-2.2,1.8-2.9c0.5-0.3,1.1-0.6,1.8-0.7C701.2,723.9,701.9,723.9,702.6,724.1z
	 M693.5,772.8c0.5-0.6,1.1-1.1,1.8-1.2c0.3-0.1,0.7-0.1,1.1,0c0.4,0,0.7,0.2,1.1,0.4c0.7,0.4,1.4,0.9,1.8,1.8c0.4,0.8,0.4,1.8,0,2.6
	c-0.2,0.4-0.5,0.8-1,1.1c-0.4,0.3-0.9,0.5-1.5,0.7c-1.1,0.2-2.2,0-3-0.6s-1.1-1.4-1.1-2.3C692.7,774.3,693,773.4,693.5,772.8z
	 M692.6,746.3c0-0.9,0.4-1.8,1.1-2.3c0.7-0.6,1.8-0.8,3-0.6c0.6,0.2,1.1,0.4,1.5,0.7s0.7,0.7,1,1.1c0.4,0.8,0.4,1.8,0,2.6
	s-1.1,1.4-1.8,1.8c-0.4,0.2-0.7,0.3-1.1,0.4c-0.4,0-0.7,0.1-1.1,0c-0.7-0.1-1.3-0.6-1.8-1.2C693,748,692.7,747.2,692.6,746.3z
	 M697.4,705.3c1.3,0,2.5,0.8,3.2,1.7s1,2.1,0.8,3.3s-0.9,2.2-1.7,2.9c-0.9,0.7-1.9,0.9-3,0.9c-2.2-0.1-4-2.2-4.1-4.6
	C692.5,707,694.7,705.2,697.4,705.3z M686.8,724.6c1,0.7,1.7,1.7,1.8,2.9s-0.2,2.4-0.8,3.3c-0.3,0.5-0.7,0.8-1.1,1.1
	c-0.4,0.3-0.9,0.6-1.4,0.7c-1.1,0.2-2.1,0.1-3.1-0.4s-1.9-1.4-2.4-2.5s-0.4-2.3,0.2-3.4c0.6-1.1,1.6-2,3.1-2.3
	c0.7-0.2,1.4-0.2,2-0.2C685.7,724,686.3,724.3,686.8,724.6z M683.8,768.8c0.8,0,1.5,0.2,2.1,0.6c0.3,0.2,0.5,0.5,0.7,0.8
	s0.3,0.7,0.4,1.1c0.2,0.8,0.1,1.7-0.3,2.5c-0.4,0.8-1.1,1.4-2,1.6c-0.5,0.1-1,0.1-1.5-0.1c-0.5-0.1-1-0.4-1.5-0.7
	c-0.9-0.7-1.4-1.7-1.4-2.7c0-0.9,0.4-1.8,1.1-2.3C682.1,769.1,683,768.8,683.8,768.8z M683.8,752.7c-0.8,0-1.7-0.3-2.4-0.8
	c-0.7-0.6-1.2-1.4-1.1-2.3c0-0.9,0.5-2,1.4-2.7c0.5-0.3,1-0.6,1.5-0.7c0.5-0.1,1-0.1,1.5-0.1c0.9,0.2,1.7,0.8,2,1.6
	c0.4,0.8,0.4,1.7,0.3,2.5c-0.1,0.4-0.2,0.8-0.4,1.1s-0.4,0.6-0.7,0.8C685.3,752.5,684.6,752.7,683.8,752.7z M676.3,709
	c0.6-1.1,1.6-1.8,2.9-2.1c2.6-0.8,5.1,1,5.4,3.4c0.4,2.5-1.1,4.6-3.3,5.2c-1.1,0.3-2.2,0-3.2-0.5s-1.8-1.4-2.2-2.5
	C675.6,711.2,675.7,710,676.3,709z M672.6,734c0.7,1,1,2.2,0.9,3.2c-0.1,1.1-0.4,2.2-1.3,2.9c-0.7,0.8-1.8,1.2-2.9,1.3
	c-1.1,0.1-2.3-0.2-3.2-0.9c-1-0.7-1.5-1.8-1.6-3.1c0-1.2,0.5-2.5,1.5-3.6c1.1-1,2.4-1.5,3.6-1.5C670.8,732.5,671.9,733.1,672.6,734z
	 M660.4,717.2c0.1-0.6,0.3-1.1,0.7-1.7c0.3-0.5,0.8-1,1.3-1.3c2.3-1.4,5.1-0.8,6.2,1.4c1.1,2.1,0.5,4.9-1.4,6
	c-0.5,0.3-1,0.5-1.5,0.6s-1.1,0.1-1.6,0c-1.1-0.2-2.2-0.8-2.9-1.7C660.5,719.5,660.2,718.3,660.4,717.2z M658.5,747.9
	c1.1-0.6,2.3-0.6,3.4-0.2c1.1,0.5,2,1.4,2.5,2.4s0.6,2.1,0.4,3.1c-0.1,0.5-0.4,1-0.7,1.4s-0.7,0.8-1.1,1.1c-0.9,0.6-2.1,1-3.3,0.8
	c-1.2-0.1-2.2-0.8-2.9-1.8c-0.3-0.5-0.6-1.1-0.7-1.8c-0.1-0.6,0-1.3,0.2-2C656.5,749.5,657.5,748.4,658.5,747.9z M648.9,726.6
	c0.4-0.5,0.9-1,1.4-1.3c0.6-0.3,1.1-0.4,1.7-0.5c1.2-0.1,2.3,0.3,3.2,1.1s1.4,2,1.5,3c0,0.5,0,1.1-0.2,1.6s-0.4,1-0.7,1.5
	c-0.7,0.9-1.7,1.4-2.8,1.6c-1.1,0.2-2.3,0-3.3-0.7s-1.7-1.7-1.9-2.9C647.8,728.9,648.1,727.6,648.9,726.6z M640.2,742.7
	c0.5-1.3,1.3-2.2,2.4-2.7c1-0.5,2.3-0.5,3.4,0c1.1,0.5,1.9,1.4,2.4,2.4s0.6,2.1,0.2,3.2c-0.2,0.5-0.5,1-0.9,1.4
	c-0.3,0.4-0.8,0.7-1.2,1c-1,0.5-2.2,0.7-3.4,0.4s-2.1-1.1-2.7-2.1c-0.3-0.5-0.5-1.1-0.5-1.7C639.9,743.9,640,743.3,640.2,742.7z
	 M637.2,760.7c0.1-2.7,2.2-4.7,4.7-4.4c2.4,0.2,4.3,2.2,4.2,4.4c0.1,2.2-1.8,4.2-4.2,4.4C639.4,765.4,637.3,763.4,637.2,760.7z
	 M646,781.5c-1.1,0.5-2.4,0.5-3.4,0s-1.9-1.5-2.4-2.7c-0.2-0.6-0.4-1.3-0.3-1.9c0.1-0.6,0.3-1.2,0.5-1.7c0.6-1,1.5-1.8,2.7-2.1
	s2.4-0.1,3.4,0.4c0.5,0.3,0.9,0.6,1.2,1s0.7,0.9,0.9,1.4c0.4,1,0.3,2.2-0.2,3.2C647.9,780.1,647.2,781,646,781.5z M655.3,795.5
	c-0.9,0.8-2.1,1.2-3.2,1.1c-0.6,0-1.2-0.2-1.7-0.5c-0.6-0.3-1-0.7-1.4-1.3c-0.8-1.1-1.1-2.3-1-3.5c0.2-1.1,0.9-2.2,1.9-2.9
	s2.2-0.8,3.3-0.7s2.1,0.7,2.8,1.6c0.3,0.4,0.5,1,0.7,1.5s0.2,1,0.2,1.6C656.7,793.6,656.2,794.7,655.3,795.5z M658.5,773.6
	c-1.1-0.6-2-1.6-2.3-3.1c-0.2-0.7-0.2-1.4-0.2-2c0.1-0.6,0.3-1.3,0.7-1.8c0.7-1,1.7-1.7,2.9-1.8s2.4,0.2,3.3,0.8
	c0.5,0.3,0.8,0.7,1.1,1.1c0.3,0.4,0.6,0.9,0.7,1.4c0.2,1.1,0.1,2.1-0.4,3.1s-1.4,1.9-2.5,2.4C660.8,774.2,659.6,774.2,658.5,773.6z
	 M668.6,805.9c-1.1,2.2-3.9,2.8-6.2,1.4c-0.6-0.3-1-0.8-1.3-1.3s-0.6-1.1-0.7-1.7c-0.2-1.2,0.1-2.3,0.8-3.3c0.8-1,1.8-1.5,2.9-1.7
	c0.5-0.1,1.1-0.1,1.6,0s1,0.3,1.5,0.6C669.1,801,669.7,803.7,668.6,805.9z M672.6,787.4c-0.7,1-1.8,1.5-3.1,1.6
	c-1.2,0-2.5-0.5-3.6-1.5c-1-1.1-1.5-2.4-1.5-3.6c0.1-1.2,0.6-2.3,1.6-3.1c1-0.7,2.2-1,3.2-0.9c1.1,0.1,2.2,0.4,2.9,1.3
	c0.8,0.7,1.2,1.8,1.3,2.9C673.6,785.3,673.3,786.4,672.6,787.4z M675,760.7c0-0.6,0.1-1.1,0.3-1.6s0.5-0.9,0.9-1.2
	c0.7-0.6,1.6-0.8,2.5-0.6s1.6,0.8,2.1,1.4c0.3,0.3,0.4,0.6,0.6,1c0.2,0.3,0.2,0.7,0.2,1c0,0.4-0.1,0.7-0.2,1c-0.1,0.3-0.3,0.7-0.6,1
	c-0.5,0.6-1.2,1.1-2.1,1.4c-0.9,0.2-1.8,0-2.5-0.6c-0.3-0.3-0.7-0.7-0.9-1.2C675.2,761.9,675,761.3,675,760.7z M684.6,811.2
	c-0.3,2.4-2.8,4.2-5.4,3.4c-1.3-0.3-2.3-1.1-2.9-2.1c-0.6-1.1-0.7-2.3-0.3-3.4c0.4-1.2,1.2-2,2.2-2.5s2.1-0.8,3.2-0.5
	C683.4,806.6,684.9,808.8,684.6,811.2z M688.6,794c-0.1,1.2-0.8,2.2-1.8,2.9c-0.5,0.3-1.1,0.6-1.8,0.7c-0.6,0.1-1.3,0-2-0.2
	c-1.4-0.3-2.5-1.3-3.1-2.3c-0.6-1.1-0.6-2.3-0.2-3.4c0.5-1.1,1.4-2,2.4-2.5s2.1-0.6,3.1-0.4c0.5,0.1,1,0.4,1.4,0.7s0.8,0.7,1.1,1.1
	C688.4,791.6,688.8,792.7,688.6,794z M700.6,814.5c-0.7,0.9-1.9,1.7-3.2,1.7c-2.7,0.1-4.8-1.7-4.8-4.2c0-2.4,1.9-4.5,4.1-4.6
	c1.1,0,2.2,0.2,3,0.9c0.9,0.7,1.5,1.7,1.7,2.9C701.6,812.4,701.3,813.5,700.6,814.5z M705.7,795c-0.6,1.1-1.6,2-3.1,2.3
	c-0.7,0.2-1.4,0.2-2,0.2c-0.6-0.1-1.3-0.3-1.8-0.7c-1-0.7-1.7-1.7-1.8-2.9s0.2-2.4,0.8-3.3c0.3-0.5,0.7-0.8,1.1-1.1
	c0.4-0.3,0.9-0.6,1.4-0.7c1.1-0.2,2.1-0.1,3.1,0.4s1.9,1.4,2.4,2.5C706.3,792.7,706.2,793.9,705.7,795z M708.4,769.2
	c-0.2,0.2-0.4,0.4-0.6,0.6c-0.4,0.3-0.8,0.6-1.3,0.7c-0.9,0.2-1.8,0-2.5-0.6s-1.1-1.4-1.3-2.2c-0.1-0.4-0.1-0.8-0.1-1.1
	c0-0.2,0-0.4,0.1-0.5c0-0.2,0.1-0.3,0.2-0.5c0.2-0.3,0.4-0.6,0.6-0.8c0.3-0.2,0.6-0.4,1-0.6c0.7-0.3,1.6-0.5,2.5-0.3s1.6,0.8,2,1.6
	c0.2,0.4,0.3,0.9,0.3,1.4s-0.1,1.1-0.4,1.6C708.7,768.7,708.6,769,708.4,769.2z M715.2,811.7c-0.6,0.3-1.2,0.4-1.9,0.4
	c-0.6,0-1.2-0.1-1.8-0.4c-1.1-0.5-1.9-1.3-2.3-2.5c-0.4-1.2-0.3-2.4,0.1-3.4c0.2-0.5,0.5-1,0.9-1.3c0.4-0.4,0.8-0.7,1.3-0.9
	c2-1,4.6,0,5.8,2.1C718.6,807.8,717.6,810.5,715.2,811.7z M719.6,787.6c-1.1,1-2.4,1.5-3.6,1.5c-1.2-0.1-2.3-0.6-3.1-1.6
	c-0.7-1-1-2.2-0.9-3.2c0.1-1.1,0.4-2.2,1.3-2.9c0.7-0.8,1.8-1.2,2.9-1.3c1.1-0.1,2.3,0.2,3.2,0.9c1,0.7,1.5,1.8,1.6,3.1
	C721.1,785.2,720.6,786.5,719.6,787.6z M721.2,771.4c-0.5-1-0.6-2.1-0.4-3.1c0.1-0.5,0.4-1,0.7-1.4s0.7-0.8,1.1-1.1
	c0.9-0.6,2.1-1,3.3-0.8c1.2,0.1,2.2,0.8,2.9,1.8c0.3,0.5,0.6,1.1,0.7,1.8c0.1,0.6,0,1.3-0.2,2c-0.3,1.4-1.3,2.5-2.3,3.1
	c-1.1,0.6-2.3,0.6-3.4,0.2C722.6,773.3,721.7,772.4,721.2,771.4z M730.5,801.6c-1,0.9-2.2,1.4-3.4,1.3c-1.2-0.1-2.3-0.7-3-1.7
	s-1-2.1-0.9-3.2c0.1-1.1,0.5-2.2,1.3-2.9s1.9-1.1,3-1.1s2.2,0.4,3.1,1.2c0.9,0.8,1.4,2,1.4,3.1C732,799.6,731.4,800.7,730.5,801.6z
	 M735.5,732.6c2-1.4,4.8-0.6,6.2,1.7c1.2,2.4,0.3,5.2-2,6.1c-2.3,0.9-4.9,0.1-5.8-1.9C732.8,736.6,733.5,733.9,735.5,732.6z
	 M741.8,787.2c-1.4,2.3-4.2,3.1-6.2,1.7c-2-1.4-2.8-4-1.6-5.9c0.9-2,3.6-2.8,5.8-1.9C742,782,742.9,784.8,741.8,787.2z M747,771.7
	c-0.3,0.5-0.8,0.9-1.3,1.3c-1,0.6-2.2,0.9-3.4,0.6c-1.2-0.3-2.1-1.1-2.7-2c-0.3-0.5-0.5-0.9-0.6-1.5c-0.1-0.5-0.2-1.1-0.1-1.6
	c0.2-1.1,0.8-2,1.7-2.7s2-1.1,3.2-1s2.3,0.7,3.1,1.6c0.7,0.9,1,2.2,0.8,3.5C747.5,770.5,747.3,771.1,747,771.7z"/>
<path id="XMLID_159_" class="st5" d="M497.2,467.2h19.6v285h-19.6V467.2z"/>
<path id="XMLID_107_" class="st6" d="M507,347.8c-10.3,0-18.6,8.3-18.6,18.6v121.3c0,10.3,8.3,18.6,18.6,18.6
	c10.3,0,18.6-8.3,18.6-18.6V366.4C525.6,356.2,517.3,347.8,507,347.8z M507,377.2c-4.7,0-8.5-3.8-8.5-8.5s3.8-8.5,8.5-8.5
	s8.5,3.8,8.5,8.5S511.7,377.2,507,377.2z"/>
<path id="XMLID_106_" class="st7" d="M507,832.6L507,832.6c-42.4,0-76.8-34.4-76.8-76.8l0,0h153.6l0,0
	C583.8,798.3,549.4,832.6,507,832.6z"/>
<path id="XMLID_189_" class="st5" d="M583.8,755.8c0,6.5-34.4,11.7-76.8,11.7c0,0,0,0,0,0c-42.4,0-76.8-5.2-76.8-11.7l0,0
	c0-6.5,34.4-11.7,76.8-11.7c0,0,0,0,0,0C549.4,744.1,583.8,749.3,583.8,755.8L583.8,755.8z"/>
<path id="XMLID_231_" class="st5" d="M127.1,467.2h19.6v217.2h-19.6V467.2z"/>
<path id="XMLID_205_" class="st6" d="M136.9,347.8c-10.3,0-18.6,8.3-18.6,18.6v121.3c0,10.3,8.3,18.6,18.6,18.6s18.6-8.3,18.6-18.6
	V366.4C155.5,356.2,147.2,347.8,136.9,347.8z M136.9,377.2c-4.7,0-8.5-3.8-8.5-8.5s3.8-8.5,8.5-8.5s8.5,3.8,8.5,8.5
	S141.6,377.2,136.9,377.2z"/>
<g id="XMLID_232_" transform="matrix(1, 0, 0, 1, 8.526512829121202e-14, 2.1316282072803006e-14)">
	<path id="XMLID_58_" class="st5" d="M136.9,837.3c-14.5,0-25.9-21.3-25.9-48.5c0-12.3,1.4-39.4,5.1-63.9
		c4.8-31.3,11.6-46.5,20.8-46.5c9.1,0,15.8,15.2,20.7,46.5c3.8,24.8,5.2,51.8,5.2,63.9C162.8,816,151.4,837.3,136.9,837.3z
		 M136.9,683.2c-2.2,0-9.9,3.1-16,42.4c-3.7,24.2-5.1,51.1-5.1,63.2c0,23.6,9.6,43.6,21,43.6s21-20,21-43.6c0-12-1.4-38.7-5.2-63.2
		C146.7,686.3,139.1,683.2,136.9,683.2z"/>
</g>
<g id="XMLID_201_" transform="matrix(1, 0, 0, 1, 1.1368683772161603e-13, 2.842170943040401e-14)">
	<path id="XMLID_51_" class="st5" d="M136.9,837.3c-24.5,0-44.5-21.8-44.5-48.5c0-12.3,2.5-39.6,9.2-64.2
		c8.4-30.7,20.3-46.3,35.3-46.3c14.6,0,26.7,16,35.1,46.3c6.9,24.9,9.4,52,9.4,64.2C181.4,815.5,161.4,837.3,136.9,837.3z
		 M136.9,683.2c-27.8,0-39.6,75.5-39.6,105.6c0,24.1,17.8,43.6,39.6,43.6s39.6-19.6,39.6-43.6C176.5,759.7,164.3,683.2,136.9,683.2z
		"/>
</g>
<path id="XMLID_43_" class="st5" d="M136.9,837.3c-3.7,0-6-4.6-7.9-15.5c-1.5-8.8-2.3-20.5-2.3-33c0-12.2,0.4-39.3,1.7-63.7
	c0.7-13.3,1.5-23.8,2.4-31.3c1.4-11.7,2.9-15.4,6.1-15.4c3.2,0,4.6,3.6,6,15.4c0.9,7.5,1.7,18.1,2.4,31.3
	c1.3,24.7,1.7,51.6,1.7,63.7c0,12.4-0.8,24.1-2.3,33C142.9,832.6,140.6,837.3,136.9,837.3z M136.9,686.2
	c-3.4,15.3-5.2,72.8-5.2,102.6c0,25.3,3.2,39.9,5.3,43.1c2-3.3,5.3-17.8,5.3-43.1C142.1,757.9,140.2,701.3,136.9,686.2z"/>
<path id="XMLID_246_" class="st5" d="M312.2,467.2h19.6v285h-19.6V467.2z"/>
<path id="XMLID_243_" class="st6" d="M322,347.8c-10.3,0-18.6,8.3-18.6,18.6v121.3c0,10.3,8.3,18.6,18.6,18.6
	c10.3,0,18.6-8.3,18.6-18.6V366.4C340.6,356.2,332.2,347.8,322,347.8z M322,377.2c-4.7,0-8.5-3.8-8.5-8.5s3.8-8.5,8.5-8.5
	s8.5,3.8,8.5,8.5S326.7,377.2,322,377.2z"/>
<path id="XMLID_235_" class="st7" d="M375.8,781.2c0,29.7-24.1,53.8-53.8,53.8s-53.8-24.1-53.8-53.8s24.1-53.8,53.8-53.8
	S375.8,751.5,375.8,781.2z"/>
<path id="XMLID_248_" class="st5" d="M375.8,775.7c0,26.7-24.1,48.3-53.8,48.3s-53.8-21.6-53.8-48.3s24.1-48.3,53.8-48.3
	S375.8,749,375.8,775.7z"/>
<g id="XMLID_18_" transform="matrix(1, 0, 0, 1, 5.684341886080802e-14, 1.4210854715202004e-14)">
	<path id="XMLID_413_" class="st7" d="M143.4,366.6c0,3.6-2.9,6.5-6.5,6.5l0,0c-3.6,0-6.5-2.9-6.5-6.5l0,0c0-3.6,2.9-6.5,6.5-6.5
		S143.4,363,143.4,366.6z"/>
	<path id="XMLID_16_" class="st5" d="M140.3,364.8c0,1.3-1.1,2.4-2.4,2.4s-2.4-1.1-2.4-2.4s1.1-2.4,2.4-2.4S140.3,363.5,140.3,364.8
		z"/>
</g>
<path id="XMLID_25_" class="st7" d="M328.5,366.6c0,3.6-2.9,6.5-6.5,6.5l0,0c-3.6,0-6.5-2.9-6.5-6.5l0,0c0-3.6,2.9-6.5,6.5-6.5
	S328.5,363,328.5,366.6z"/>
<path id="XMLID_21_" class="st5" d="M325.4,364.8c0,1.3-1.1,2.4-2.4,2.4s-2.4-1.1-2.4-2.4s1.1-2.4,2.4-2.4S325.4,363.5,325.4,364.8z
	"/>
<path id="XMLID_271_" class="st7" d="M513.6,366.6c0,3.6-2.9,6.5-6.5,6.5c-3.6,0-6.5-2.9-6.5-6.5l0,0c0-3.6,2.9-6.5,6.5-6.5
	C510.7,360.1,513.6,363,513.6,366.6z"/>
<path id="XMLID_268_" class="st5" d="M510.4,364.8c0,1.3-1.1,2.4-2.4,2.4s-2.4-1.1-2.4-2.4s1.1-2.4,2.4-2.4S510.4,363.5,510.4,364.8
	z"/>
<path id="XMLID_278_" class="st7" d="M698.6,366.6c0,3.6-2.9,6.5-6.5,6.5l0,0c-3.6,0-6.5-2.9-6.5-6.5l0,0c0-3.6,2.9-6.5,6.5-6.5
	S698.6,363,698.6,366.6z"/>
<path id="XMLID_275_" class="st5" d="M695.5,364.8c0,1.3-1.1,2.4-2.4,2.4l0,0c-1.3,0-2.4-1.1-2.4-2.4c0,0,0,0,0,0
	c0-1.3,1.1-2.4,2.4-2.4l0,0C694.4,362.4,695.5,363.5,695.5,364.8C695.5,364.8,695.5,364.8,695.5,364.8z"/>
<path id="XMLID_420_" class="st7" d="M883.7,366.6c0,3.6-2.9,6.5-6.5,6.5l0,0c-3.6,0-6.5-2.9-6.5-6.5l0,0c0-3.6,2.9-6.5,6.5-6.5
	S883.7,363,883.7,366.6z"/>
<path id="XMLID_417_" class="st5" d="M880.6,364.8c0,1.3-1.1,2.4-2.4,2.4l0,0c-1.3,0-2.4-1.1-2.4-2.4c0,0,0,0,0,0
	c0-1.3,1.1-2.4,2.4-2.4l0,0C879.5,362.4,880.6,363.5,880.6,364.8C880.6,364.8,880.6,364.8,880.6,364.8z"/>
<path id="XMLID_427_" class="st7" d="M1068.8,366.6c0,3.6-2.9,6.5-6.5,6.5l0,0c-3.6,0-6.5-2.9-6.5-6.5l0,0c0-3.6,2.9-6.5,6.5-6.5
	S1068.8,363,1068.8,366.6z"/>
<path id="XMLID_424_" class="st5" d="M1065.7,364.8c0,1.3-1.1,2.4-2.4,2.4l0,0c-1.3,0-2.4-1.1-2.4-2.4c0,0,0,0,0,0
	c0-1.3,1.1-2.4,2.4-2.4l0,0C1064.6,362.4,1065.7,363.5,1065.7,364.8C1065.7,364.8,1065.7,364.8,1065.7,364.8z"/>
<path id="XMLID_434_" class="st7" d="M1253.9,366.6c0,3.6-2.9,6.5-6.5,6.5l0,0c-3.6,0-6.5-2.9-6.5-6.5l0,0c0-3.6,2.9-6.5,6.5-6.5
	S1253.9,363,1253.9,366.6z"/>
<path id="XMLID_431_" class="st5" d="M1250.8,364.8c0,1.3-1.1,2.4-2.4,2.4l0,0c-1.3,0-2.4-1.1-2.4-2.4c0,0,0,0,0,0
	c0-1.3,1.1-2.4,2.4-2.4l0,0C1249.7,362.4,1250.8,363.5,1250.8,364.8C1250.8,364.8,1250.8,364.8,1250.8,364.8z"/>
<g id="XMLID_22_" transform="matrix(1, 0, 0, 1, 5.684341886080802e-14, 1.4210854715202004e-14)">
	<path id="XMLID_491_" class="st8" d="M201.6,300.3h-59c-7.6,0-13.7-6.1-13.7-13.7V175.3c0-7.6,6.1-13.7,13.7-13.7h59
		c7.6,0,13.7,6.1,13.7,13.7v111.3C215.3,294.2,209.2,300.3,201.6,300.3z"/>
	<path id="XMLID_523_" class="st5" d="M137.5,198.8v79c0,7.4,6,13.4,13.4,13.4h42.6c7.4,0,13.4-6,13.4-13.4v-79L137.5,198.8
		L137.5,198.8z"/>
	<path id="XMLID_492_" class="st6" d="M206.9,161.6h-69.6c-4.6,0-8.4-3.8-8.4-8.4v-3c0-4.6,3.8-8.4,8.4-8.4h69.6
		c4.6,0,8.4,3.8,8.4,8.4v3C215.3,157.8,211.6,161.6,206.9,161.6z"/>
</g>
<path id="XMLID_503_" class="st8" d="M430.5,300.3h-59c-7.6,0-13.7-6.1-13.7-13.7V175.3c0-7.6,6.1-13.7,13.7-13.7h59
	c7.6,0,13.7,6.1,13.7,13.7v111.3C444.2,294.2,438.1,300.3,430.5,300.3z"/>
<path id="XMLID_529_" class="st9" d="M366.3,215.1v62.7c0,7.4,6,13.4,13.4,13.4h42.6c7.4,0,13.4-6,13.4-13.4v-62.7L366.3,215.1
	L366.3,215.1z"/>
<path id="XMLID_499_" class="st6" d="M435.8,161.6h-69.6c-4.6,0-8.4-3.8-8.4-8.4v-3c0-4.6,3.8-8.4,8.4-8.4h69.6
	c4.6,0,8.4,3.8,8.4,8.4v3C444.2,157.8,440.5,161.6,435.8,161.6z"/>
<path id="XMLID_500_" class="st8" d="M317.6,300.3h-59c-7.6,0-13.7-6.1-13.7-13.7V175.3c0-7.6,6.1-13.7,13.7-13.7h59
	c7.6,0,13.7,6.1,13.7,13.7v111.3C331.3,294.2,325.1,300.3,317.6,300.3z"/>
<path id="XMLID_526_" class="st10" d="M253.4,223.6v54.3c0,7.4,6,13.4,13.4,13.4h42.6c7.4,0,13.4-6,13.4-13.4v-54.3L253.4,223.6
	L253.4,223.6z"/>
<path id="XMLID_498_" class="st6" d="M322.9,161.6h-69.6c-4.6,0-8.4-3.8-8.4-8.4v-3c0-4.6,3.8-8.4,8.4-8.4h69.6
	c4.6,0,8.4,3.8,8.4,8.4v3C331.3,157.8,327.5,161.6,322.9,161.6z"/>
<g id="XMLID_162_" transform="matrix(1, 0, 0, 1, 5.684341886080802e-14, 1.4210854715202004e-14)">
	<path id="XMLID_501_" class="st6" d="M600.7,225.5h-65.8v-17.1c0-5.7,4.6-10.3,10.3-10.3h45.2c5.7,0,10.3,4.6,10.3,10.3V225.5z"/>
	<path id="XMLID_493_" class="st5" d="M590.4,300.3h-45.2c-5.7,0-10.3-4.6-10.3-10.3v-74.9h65.8V290
		C600.7,295.7,596.1,300.3,590.4,300.3z"/>
	<path id="XMLID_508_" class="st6" d="M574.3,192.6c0,3.6-2.9,6.5-6.5,6.5l0,0c-3.6,0-6.5-2.9-6.5-6.5l0,0c0-3.6,2.9-6.5,6.5-6.5
		l0,0C571.4,186.1,574.3,189,574.3,192.6L574.3,192.6z"/>
</g>
<path id="XMLID_171_" class="st6" d="M690.9,225.5h-65.8v-17.1c0-5.7,4.6-10.3,10.3-10.3h45.2c5.7,0,10.3,4.6,10.3,10.3V225.5z"/>
<path id="XMLID_170_" class="st5" d="M680.6,300.3h-45.2c-5.7,0-10.3-4.6-10.3-10.3v-74.9h65.8V290
	C690.9,295.7,686.2,300.3,680.6,300.3z"/>
<path id="XMLID_169_" class="st6" d="M664.5,192.6c0,3.6-2.9,6.5-6.5,6.5l0,0c-3.6,0-6.5-2.9-6.5-6.5l0,0c0-3.6,2.9-6.5,6.5-6.5l0,0
	C661.6,186.1,664.5,189,664.5,192.6L664.5,192.6z"/>
<path id="XMLID_175_" class="st6" d="M781,225.5h-65.8v-17.1c0-5.7,4.6-10.3,10.3-10.3h45.2c5.7,0,10.3,4.6,10.3,10.3V225.5z"/>
<path id="XMLID_174_" class="st5" d="M770.7,300.3h-45.2c-5.7,0-10.3-4.6-10.3-10.3v-74.9H781V290
	C781,295.7,776.4,300.3,770.7,300.3z"/>
<path id="XMLID_173_" class="st6" d="M754.6,192.6c0,3.6-2.9,6.5-6.5,6.5l0,0c-3.6,0-6.5-2.9-6.5-6.5l0,0c0-3.6,2.9-6.5,6.5-6.5l0,0
	C751.7,186.1,754.6,189,754.6,192.6L754.6,192.6z"/>
<path id="XMLID_510_" class="st6" d="M871.2,225.5h-65.8v-17.1c0-5.7,4.6-10.3,10.3-10.3h45.2c5.7,0,10.3,4.6,10.3,10.3V225.5z"/>
<path id="XMLID_178_" class="st5" d="M860.9,300.3h-45.2c-5.7,0-10.3-4.6-10.3-10.3v-74.9h65.8V290
	C871.2,295.7,866.6,300.3,860.9,300.3z"/>
<path id="XMLID_177_" class="st6" d="M844.8,192.6c0,3.6-2.9,6.5-6.5,6.5l0,0c-3.6,0-6.5-2.9-6.5-6.5l0,0c0-3.6,2.9-6.5,6.5-6.5l0,0
	C841.9,186.1,844.8,189,844.8,192.6L844.8,192.6z"/>
<path id="XMLID_522_" class="st11" d="M1207.8,115.3h8.5v29.9h-8.5V115.3z"/>
<path id="XMLID_513_" class="st12" d="M972.4,115.3h8.5v29.9h-8.5V115.3z"/>
<path id="XMLID_163_" class="st13" d="M1035.6,300.3H948l12.5-148.6h63.3L1035.6,300.3z"/>
<path id="XMLID_511_" class="st12" d="M1011.3,138.8h-39c-7.1,0-12.8,5.8-12.8,12.8l0,0h64.7l0,0
	C1024.1,144.6,1018.4,138.8,1011.3,138.8z"/>
<path id="XMLID_512_" class="st12" d="M959.4,151.7h65v7.3h-65V151.7z"/>
<path id="XMLID_330_" class="st12" d="M1021.2,193.6h-58.3l-7.5,89.4c-0.5,5.5,3.9,10.3,9.4,10.3h54.1c5.5,0,9.9-4.7,9.4-10.2
	L1021.2,193.6z"/>
<path id="XMLID_518_" class="st14" d="M1090.1,115.3h8.5v29.9h-8.5V115.3z"/>
<path id="XMLID_517_" class="st13" d="M1153.3,300.3h-87.6l12.6-148.6h63.2L1153.3,300.3z"/>
<path id="XMLID_516_" class="st14" d="M1129,138.8h-39c-7.1,0-12.8,5.8-12.8,12.8l0,0h64.7l0,0
	C1141.9,144.6,1136.1,138.8,1129,138.8z"/>
<path id="XMLID_515_" class="st14" d="M1077.2,151.7h65v7.3h-65V151.7z"/>
<path id="XMLID_329_" class="st14" d="M1142.4,236.6H1077l-3.9,46.4c-0.5,5.5,3.9,10.3,9.4,10.3h54.1c5.5,0,9.9-4.7,9.4-10.2
	L1142.4,236.6z"/>
<path id="XMLID_521_" class="st13" d="M1271,300.3h-87.5l12.5-148.6h63.3L1271,300.3z"/>
<path id="XMLID_520_" class="st11" d="M1246.8,138.8h-39c-7.1,0-12.8,5.8-12.8,12.8l0,0h64.7l0,0
	C1259.6,144.6,1253.9,138.8,1246.8,138.8z"/>
<path id="XMLID_519_" class="st11" d="M1194.9,151.7h65v7.3h-65V151.7z"/>
<path id="XMLID_328_" class="st11" d="M1258.6,217.1h-62.2l-5.6,65.9c-0.5,5.5,3.9,10.3,9.4,10.3h54.1c5.5,0,9.9-4.7,9.4-10.2
	L1258.6,217.1z"/>
</svg>
